<svg xmlns="http://www.w3.org/2000/svg" viewBox="0 0 24 24" height="24mm" width="24mm"><path stroke-linecap="round" stroke-width=".049" stroke="#000" d="M11.852.402c-.151 0-.303.004-.455.01l3.5 8.268-7.903 3.47-3.355-7.94a10.764 10.764 0 00-2.55 6.957c0 5.945 4.819 10.764 10.763 10.764 1.04 0 2.044-.148 2.995-.422l-1.661-3.811 1.467-.64 1.695 3.891a10.766 10.766 0 006.269-9.783c0-5.945-4.82-10.764-10.765-10.764zm4.496 20.547c-.485.224-.987.41-1.501.56l.95 2.178 1.466-.64zm-.257-11.954l1.395 3.2-9.393 4.094-1.395-3.2zm2.071.763l1.341 3.31-5.824 2.951.425.906-.651.284-.692-1.52 5.84-2.96-.826-2.037-.44.105-.332-.703z"/></svg>